<?xml version="1.0" encoding="utf-8"?>
<!-- Generator: Adobe Illustrator 21.1.0, SVG Export Plug-In . SVG Version: 6.00 Build 0)  -->
<svg version="1.1" id="Ebene_1" xmlns="http://www.w3.org/2000/svg" xmlns:xlink="http://www.w3.org/1999/xlink" x="0px" y="0px"
	 viewBox="0 0 69 69" style="enable-background:new 0 0 69 69;" xml:space="preserve">
<style type="text/css">
	.st0{fill:#FFFFFF;}
	.st1{clip-path:url(#SVGID_2_);fill:url(#SVGID_3_);}
	.st2{clip-path:url(#SVGID_5_);}
	.st3{clip-path:url(#SVGID_7_);fill:#F5F5F5;}
	.st4{opacity:0.550003;clip-path:url(#SVGID_9_);}
	.st5{clip-path:url(#SVGID_11_);fill:#D5D5D5;}
	.st6{clip-path:url(#SVGID_11_);fill:#EAEAEA;}
	.st7{clip-path:url(#SVGID_5_);fill:url(#SVGID_12_);}
	.st8{fill:#D5D5D5;}
	.st9{fill:#929191;}
	.st10{fill:#CCD1D9;}
	.st11{clip-path:url(#SVGID_14_);fill:#424A54;}
	.st12{clip-path:url(#SVGID_14_);fill:#CCD1D9;}
	.st13{clip-path:url(#SVGID_14_);fill:#E5E8ED;}
	.st14{clip-path:url(#SVGID_14_);fill:#ABB2BD;}
	.st15{clip-path:url(#SVGID_14_);fill:#A1D469;}
	.st16{clip-path:url(#SVGID_14_);fill:#ED5466;}
	.st17{fill:#030005;}
	.st18{fill:#211A14;}
</style>
<g>
	<path class="st8" d="M3.8085938,7.7916036l-1.7050781-1.046875c1.1289062-1.8378906,2.7050781-3.3452148,4.6855469-4.4794922
		l0.9941406,1.7353516C6.0966797,4.9664083,4.7597656,6.2417989,3.8085938,7.7916036z"/>
	<path class="st8" d="M2,46.9375992H0v-5.375h2V46.9375992z M2,37.1875992H0v-5.375h2V37.1875992z M2,27.4375992H0v-5.375h2
		V27.4375992z"/>
	<path class="st8" d="M6.7431641,66.895607c-1.8378906-1.1303711-3.3447266-2.706543-4.4785156-4.6855469l1.734375-0.9941406
		c0.9658203,1.6850586,2.2412109,3.0229492,3.7910156,3.9755859L6.7431641,66.895607z"/>
	<path class="st8" d="M46.9375,69.0000992h-5.375v-2h5.375V69.0000992z M37.1875,69.0000992h-5.375v-2h5.375V69.0000992z
		 M27.4375,69.0000992h-5.375v-2h5.375V69.0000992z"/>
	<path class="st8" d="M62.2109375,66.7349625l-0.9941406-1.7353516c1.6865234-0.9658203,3.0234375-2.2412109,3.9746094-3.7910156
		l1.7050781,1.046875C65.7675781,64.0933609,64.1914062,65.6006851,62.2109375,66.7349625z"/>
	<path class="st8" d="M69,46.9375992h-2v-5.375h2V46.9375992z M69,37.1875992h-2v-5.375h2V37.1875992z M69,27.4375992h-2v-5.375h2
		V27.4375992z"/>
	<path class="st8" d="M65.0009766,7.7842793c-0.9658203-1.6850586-2.2412109-3.0229492-3.7910156-3.9755859l1.046875-1.7041016
		c1.8378906,1.1303711,3.3447266,2.706543,4.4785156,4.6855469L65.0009766,7.7842793z"/>
	<path class="st8" d="M46.9375,2.0000997h-5.375v-2h5.375V2.0000997z M37.1875,2.0000997h-5.375v-2h5.375V2.0000997z
		 M27.4375,2.0000997h-5.375v-2h5.375V2.0000997z"/>
	<path class="st8" d="M54,69.0000992h-2.6875v-2H54c0.0097656,0,1.1777344-0.0073242,2.7910156-0.3505859l0.4160156,1.9560547
		C55.3740234,68.9957047,54.0556641,69.0000992,54,69.0000992z M17.6875,69.0000992H15
		c-1.1132812,0-2.1835938-0.0859375-3.1796875-0.2548828l0.3339844-1.9716797
		c0.8867188,0.1503906,1.84375,0.2265625,2.8457031,0.2265625h2.6875V69.0000992z M0.3955078,57.2066422
		C0.0048828,55.3746109,0,54.055275,0,54.0000992v-2.6879883h2v2.6879883c0,0.0102539,0.0078125,1.1777344,0.3505859,2.7895508
		L0.3955078,57.2066422z M68.7460938,57.1797867l-1.9726562-0.3330078C66.9238281,55.958107,67,55.0005875,67,54.0000992v-2.6879883
		h2v2.6879883C69,55.1114273,68.9140625,56.1817398,68.7460938,57.1797867z M69,17.6871109h-2v-2.6870117
		c0-0.0102539-0.0078125-1.1777344-0.3505859-2.7895508l1.9570312-0.4160156C68.9951172,13.626564,69,14.9449234,69,15.0000992
		V17.6871109z M2,17.6871109H0v-2.6870117c0-1.1108398,0.0859375-2.1806641,0.2539062-3.1801758l1.9726562,0.3330078
		C2.0761719,13.0425797,2,14.0005875,2,15.0000992V17.6871109z M12.2089844,2.3511739l-0.4160156-1.9560547
		C13.6259766,0.0044942,14.9443359,0.0000997,15,0.0000997h2.6875v2H15
		C14.9902344,2.0000997,13.8222656,2.0074239,12.2089844,2.3511739z M56.8457031,2.2261739
		C55.9580078,2.0762715,55.0009766,2.0000997,54,2.0000997h-2.6875v-2H54c1.1123047,0,2.1816406,0.0854492,3.1796875,0.2543945
		L56.8457031,2.2261739z"/>
	<path class="st9" d="M49.1733017,34.1399002c-0.4950027,0-0.8920021,0.3960037-0.8920021,0.8920021v8.112999
		c0,2.2059975-1.7970009,3.9969978-3.9969978,3.9969978H24.7153015c-2.2059994,0-3.9969997-1.7969971-3.9969997-3.9969978
		v-8.2449989c0-0.4959984-0.3959999-0.8920021-0.8920002-0.8920021c-0.4949989,0-0.8920002,0.3960037-0.8920002,0.8920021v8.2449989
		c0,3.1909981,2.5970001,5.781002,5.7810001,5.781002h19.5690002c3.1909981,0,5.7809982-2.5970001,5.7809982-5.781002v-8.112999
		C50.0653,34.5429039,49.6683006,34.1399002,49.1733017,34.1399002"/>
	<path class="st9" d="M29.4591007,27.269001l4.1490002-4.1489983v18.0960007c0,0.4949989,0.3959999,0.8919983,0.8919983,0.8919983
		c0.4949989,0,0.8919983-0.3969994,0.8919983-0.8919983V23.1200027l4.1490021,4.1489983
		c0.1720009,0.1720009,0.4029999,0.2640038,0.6269989,0.2640038c0.2320023,0,0.4560013-0.0860023,0.6280022-0.2640038
		c0.3499985-0.3499985,0.3499985-0.9119987,0-1.2619972l-5.6680031-5.6679993
		c-0.1660004-0.1660004-0.3969994-0.2650032-0.6279984-0.2650032c-0.237999,0-0.4630013,0.0930023-0.6279984,0.2650032
		l-5.6680012,5.6679993c-0.3500004,0.3499985-0.3500004,0.9119987,0,1.2619972
		C28.5471001,27.6130028,29.115099,27.6130028,29.4591007,27.269001"/>
</g>
</svg>
